<!-- icon666.com - MILLIONS vector ICONS FREE --><svg viewBox="0 0 64 64" xmlns="http://www.w3.org/2000/svg"><g id="Filled_outline" data-name="Filled outline"><path d="m22 57v-8h32c4 0 7 4 7 4s-3 4-7 4z" fill="#98ecb7"/><circle cx="54" cy="12" fill="#9362f5" r="7"/><path d="m43 18a10 10 0 1 0 -15 8.651v1.349h10v-1.349a9.988 9.988 0 0 0 5-8.651z" fill="#4da6ea"/><path d="m61 53s-3-4-7-4a9.659 9.659 0 0 1 0 8c4 0 7-4 7-4z" fill="#f98c96"/><path d="m42 50h8v6h-8z" fill="#5ab89d" transform="matrix(0 1 -1 0 99 7)"/><path d="m37 51h8v4h-8z" fill="#f98c96" transform="matrix(0 1 -1 0 94 12)"/><path d="m26 28v21h5 4l5-5v-16z" fill="#4f83d1"/><path d="m48 43h8a0 0 0 0 1 0 0v4a0 0 0 0 1 0 0h-6a2 2 0 0 1 -2-2v-2a0 0 0 0 1 0 0z" fill="#e97424" transform="matrix(0 1 -1 0 97 -7)"/><path d="m35 49 5-5h10v5z" fill="#f9bb4b"/><path d="m18 28h8v15h-8z" fill="#e97424"/><path d="m18 36-4-2v-6h4z" fill="#f9bb4b"/><path d="m26 42h14v2l-5 5h-9z" fill="#4da6ea"/><path d="m35.5 37h7.5l5-2v-5l-5 2h-7.5a2.5 2.5 0 0 0 -2.5 2.5 2.5 2.5 0 0 0 2.5 2.5z" fill="#f9bb4b"/><path d="m55 32.5a2.5 2.5 0 0 0 -2.5-2.5h-.5a2 2 0 0 0 -2-2 2 2 0 0 0 -2 2v5h4.5a2.5 2.5 0 0 0 2.5-2.5z" fill="#e97424"/><path d="m31 18c0 2.761 3.134 5 7 5a8.921 8.921 0 0 0 4.147-.979 9.934 9.934 0 0 0 .007-8.039 8.939 8.939 0 0 0 -4.154-.982c-3.866 0-7 2.239-7 5z" fill="#fcf05a"/><path d="m54 5a6.984 6.984 0 0 0 -6.823 8.546l3.823-.546 1-3 3-1 3 2 2.487-1.625a7 7 0 0 0 -6.487-4.375z" fill="#d0bafa"/><path d="m57 14-2-1-1 3-3.547 2.027a6.984 6.984 0 0 0 10.021-3.369z" fill="#d0bafa"/><path d="m22 57-4 2v-12l4 2z" fill="#f98c96"/><path d="m55 48.078v-7.078a1 1 0 0 0 -1-1h-2a3 3 0 0 0 -3 3h-8v-5h2a1.012 1.012 0 0 0 .372-.071l4.821-1.929h4.307a3.5 3.5 0 0 0 .334-6.984 2.994 2.994 0 0 0 -5.738.268l-4.288 1.716h-1.808v-3a1 1 0 0 0 -1-1h-.719a11 11 0 1 0 -12.562 0h-12.719a1 1 0 0 0 -1 1v6a1 1 0 0 0 .553.9l3.447 1.718v6.382a1 1 0 0 0 1 1h7v4h-2.764l-3.789-1.9a1 1 0 0 0 -1.447.9v12a1 1 0 0 0 1.447.9l3.789-1.9h31.764c4.449 0 7.665-4.22 7.8-4.4a1 1 0 0 0 0-1.2c-.125-.166-2.878-3.768-6.8-4.322zm-6-18.078a1 1 0 0 1 2 0 1 1 0 0 0 1 1h.5a1.5 1.5 0 0 1 0 3h-3.5zm-32 4.382-2-1v-4.382h2zm4 22-2 1v-8.764l2 1zm22-23.382a1.012 1.012 0 0 0 .372-.071l3.628-1.452v2.846l-4.192 1.677h-7.308a1.5 1.5 0 0 1 0-3zm-16 8v-2.074a5.151 5.151 0 0 0 3.9-2.479l-1.783-.907a3.156 3.156 0 0 1 -2.117 1.349v-1.963a5.151 5.151 0 0 0 3.9-2.479l-1.783-.907a3.156 3.156 0 0 1 -2.117 1.349v-3.889h12v2h-3.5a3.5 3.5 0 0 0 0 7h3.5v3zm12 2v.586l-4.414 4.414h-7.586v-5zm2.375-28.273a8.827 8.827 0 0 1 -.01 6.55 8 8 0 0 1 -3.365.723c-3.252 0-6-1.832-6-4s2.748-4 6-4a8 8 0 0 1 3.375.727zm-17.375 3.273a8.992 8.992 0 0 1 15.852-5.821 10.588 10.588 0 0 0 -1.852-.179c-4.411 0-8 2.691-8 6s3.589 6 8 6a10.544 10.544 0 0 0 1.822-.174 8.991 8.991 0 0 1 -2.323 1.96 1 1 0 0 0 -.5.865v.349h-7.999v-.349a1 1 0 0 0 -.5-.865 9.032 9.032 0 0 1 -4.5-7.786zm-5 24v-13h6v3.889a3.156 3.156 0 0 1 -2.112-1.349l-1.783.907a5.151 5.151 0 0 0 3.895 2.479v1.963a3.156 3.156 0 0 1 -2.112-1.349l-1.783.907a5.151 5.151 0 0 0 3.895 2.479v3.074zm19 14h-15v-6h15zm4 0h-2v-6h2zm6 0h-4v-6h4zm1-8h-11.586l3-3h8.586zm2-5a1 1 0 0 1 1-1h1v6h-2zm2.349 13h-3.349v-6h3.331a8.613 8.613 0 0 1 .018 6zm2.194-.247a10.577 10.577 0 0 0 -.044-5.517 9.889 9.889 0 0 1 4.184 2.764 9.951 9.951 0 0 1 -4.14 2.753z"/><path d="m27 14h2v2h-2z"/><path d="m26 18h2v2h-2z"/><path d="m4 30h2v2h-2z"/><path d="m4 34h2v2h-2z"/><path d="m2 32h2v2h-2z"/><path d="m6 32h2v2h-2z"/><path d="m10 40h2v2h-2z"/><path d="m10 44h2v2h-2z"/><path d="m8 42h2v2h-2z"/><path d="m12 42h2v2h-2z"/><path d="m58 22h2v2h-2z"/><path d="m58 26h2v2h-2z"/><path d="m56 24h2v2h-2z"/><path d="m60 24h2v2h-2z"/><path d="m16 10h2v2h-2z"/><path d="m16 14h2v2h-2z"/><path d="m14 12h2v2h-2z"/><path d="m18 12h2v2h-2z"/><path d="m2 19h18v2h-18z"/><path d="m4 23h16v2h-16z"/><path d="m4 54h11v2h-11z"/><path d="m54 20a8 8 0 1 0 -8-8 8.009 8.009 0 0 0 8 8zm0-2a6 6 0 0 1 -1.251-.133l1.747-1a1 1 0 0 0 .453-.552l.635-1.906.969.485a.99.99 0 0 0 .261.087l2.134.405a6 6 0 0 1 -4.948 2.614zm5.9-7.049a5.741 5.741 0 0 1 -.1 2.562l-2.476-.47-1.876-.938a1 1 0 0 0 -1.4.579l-.879 2.637-2.683 1.534a6.027 6.027 0 0 1 -2-2.487l2.652-.378a1 1 0 0 0 .808-.674l.842-2.525 2.061-.687 2.593 1.728a1 1 0 0 0 1.1 0zm-11.9 1.049a6 6 0 0 1 11.2-2.979l-1.2.781-2.45-1.634a1 1 0 0 0 -.871-.117l-3 1a1 1 0 0 0 -.633.633l-.8 2.413-2.226.318c-.009-.138-.02-.275-.02-.415z"/><path d="m2 50h13v2h-13z"/></g></svg>